<svg xmlns="http://www.w3.org/2000/svg" version="1.1" xmlns:xlink="http://www.w3.org/1999/xlink" xmlns:svgjs="http://svgjs.dev/svgjs" width="2000" height="1252" viewBox="0 0 2000 1252"><g transform="matrix(1,0,0,1,-1.2121212121212466,-2.01935483870966)"><svg viewBox="0 0 396 248" data-background-color="#97978d" preserveAspectRatio="xMidYMid meet" height="1252" width="2000" xmlns="http://www.w3.org/2000/svg" xmlns:xlink="http://www.w3.org/1999/xlink"><g id="tight-bounds" transform="matrix(1,0,0,1,0.2400000000000091,0.4000000000000057)"><svg viewBox="0 0 395.52 247.2" height="247.2" width="395.52"><g><svg></svg></g><g><svg viewBox="0 0 395.52 247.2" height="247.2" width="395.52"><g transform="matrix(1,0,0,1,39.55199999999999,85.84951276835793)"><svg viewBox="0 0 316.416 75.50097446328412" height="75.50097446328412" width="316.416"><g><svg viewBox="0 0 316.416 75.50097446328412" height="75.50097446328412" width="316.416"><g><svg viewBox="0 0 485.9344627363606 115.95028526334842" height="75.50097446328412" width="316.416"><g transform="matrix(1,0,0,1,169.51846273636062,16.024967066063347)"><svg viewBox="0 0 316.416 83.90035113122173" height="83.90035113122173" width="316.416"><g id="textblocktransform"><svg viewBox="0 0 316.416 83.90035113122173" height="83.90035113122173" width="316.416" id="textblock"><g><svg viewBox="0 0 316.416 83.90035113122173" height="83.90035113122173" width="316.416"><g transform="matrix(1,0,0,1,0,0)"><svg width="316.416" viewBox="4.35 -36.23 138.12 36.629999999999995" height="83.90035113122173" data-palette-color="#ffffff"><path d="M6.85-35.83L6.85-35.83Q7.5-35.83 7.81-35.66 8.13-35.5 8.53-35L8.53-35 29.28-8Q29.2-8.65 29.18-9.26 29.15-9.88 29.15-10.45L29.15-10.45 29.15-35.83 33.4-35.83 33.4 0 30.95 0Q30.38 0 29.99-0.2 29.6-0.4 29.23-0.88L29.23-0.88 8.5-27.85Q8.55-27.23 8.58-26.63 8.6-26.03 8.6-25.53L8.6-25.53 8.6 0 4.35 0 4.35-35.83 6.85-35.83ZM42.15-35.83L64.22-35.83 64.22-31.88 47.02-31.88 47.02-19.98 60.95-19.98 60.95-16.18 47.02-16.18 47.02-3.95 64.22-3.95 64.22 0 42.15 0 42.15-35.83ZM78.37 0L67.2-35.83 71.22-35.83Q71.87-35.83 72.3-35.5 72.72-35.18 72.87-34.68L72.87-34.68 80.27-9.78Q80.47-9.1 80.63-8.33 80.8-7.55 80.95-6.7L80.95-6.7Q81.12-7.55 81.3-8.34 81.47-9.13 81.7-9.78L81.7-9.78 90.12-34.68Q90.27-35.1 90.71-35.46 91.15-35.83 91.77-35.83L91.77-35.83 93.17-35.83Q93.82-35.83 94.23-35.5 94.65-35.18 94.82-34.68L94.82-34.68 103.2-9.78Q103.65-8.47 104-6.8L104-6.8Q104.15-7.63 104.27-8.38 104.4-9.13 104.6-9.78L104.6-9.78 112.02-34.68Q112.15-35.13 112.58-35.48 113.02-35.83 113.65-35.83L113.65-35.83 117.42-35.83 106.25 0 101.9 0 92.82-27.33Q92.55-28.1 92.32-29.13L92.32-29.13Q92.2-28.63 92.08-28.16 91.97-27.7 91.85-27.33L91.85-27.33 82.72 0 78.37 0ZM141.67-32.52L140.49-30.23Q140.27-29.85 140.02-29.66 139.77-29.48 139.37-29.48L139.37-29.48Q138.94-29.48 138.38-29.9 137.82-30.33 136.96-30.84 136.09-31.35 134.88-31.78 133.67-32.2 131.94-32.2L131.94-32.2Q130.32-32.2 129.07-31.76 127.82-31.33 126.98-30.58 126.14-29.83 125.72-28.81 125.29-27.8 125.29-26.63L125.29-26.63Q125.29-25.13 126.03-24.14 126.77-23.15 127.98-22.45 129.19-21.75 130.73-21.24 132.27-20.73 133.88-20.18 135.49-19.63 137.03-18.94 138.57-18.25 139.78-17.2 140.99-16.15 141.73-14.63 142.47-13.1 142.47-10.88L142.47-10.88Q142.47-8.53 141.67-6.46 140.87-4.4 139.33-2.88 137.79-1.35 135.56-0.48 133.32 0.4 130.47 0.4L130.47 0.4Q126.99 0.4 124.13-0.86 121.27-2.13 119.24-4.28L119.24-4.28 120.64-6.58Q120.84-6.85 121.13-7.04 121.42-7.23 121.77-7.23L121.77-7.23Q122.29-7.23 122.97-6.66 123.64-6.1 124.66-5.43 125.67-4.75 127.11-4.19 128.54-3.63 130.62-3.63L130.62-3.63Q132.34-3.63 133.69-4.1 135.04-4.58 135.98-5.44 136.92-6.3 137.42-7.5 137.92-8.7 137.92-10.18L137.92-10.18Q137.92-11.8 137.18-12.84 136.44-13.88 135.24-14.58 134.04-15.28 132.51-15.76 130.97-16.25 129.36-16.76 127.74-17.28 126.21-17.95 124.67-18.63 123.47-19.7 122.27-20.78 121.53-22.39 120.79-24 120.79-26.38L120.79-26.38Q120.79-28.28 121.53-30.05 122.27-31.83 123.67-33.2 125.07-34.58 127.13-35.4 129.19-36.23 131.87-36.23L131.87-36.23Q134.87-36.23 137.34-35.27 139.82-34.33 141.67-32.52L141.67-32.52Z" opacity="1" transform="matrix(1,0,0,1,0,0)" fill="#ffffff" class="wordmark-text-0" data-fill-palette-color="primary" id="text-0"></path></svg></g></svg></g></svg></g></svg></g><g><svg viewBox="0 0 149.71160344270632 115.95028526334842" height="115.95028526334842" width="149.71160344270632"><g><svg xmlns="http://www.w3.org/2000/svg" xmlns:xlink="http://www.w3.org/1999/xlink" version="1.1" x="0" y="0" viewBox="27 42 260.3 201.6" enable-background="new 0 0 300 300" xml:space="preserve" height="115.95028526334842" width="149.71160344270632" class="icon-icon-0" data-fill-palette-color="accent" id="icon-0"><path d="M287 221.2V47C287 44.2 284.8 42 282 42H65C62.2 42 60 44.2 60 47V76H32C29.2 76 27 78.2 27 81V223C27 224 27.3 225 27.8 225.8 29.4 235.7 37.9 243 48.5 243H264C264.7 243.4 265.5 243.6 266.3 243.6 277.9 243.6 287.3 234.2 287.3 222.6 287.2 222.1 287.1 221.6 287 221.2M37.5 222.3C37.5 221.5 37.3 220.7 37 220.1V86H60V217.6C59.4 218.6 59.1 219.7 59.3 221 59.4 221.5 59.4 222.1 59.4 222.7 59.4 223.2 59.4 223.4 59.3 224.1 58.5 229.3 54 233.1 48.6 233.1H48.5C42.4 233 37.5 228.3 37.5 222.3M268.7 233.3C268.2 233.1 267.6 233 267 233H66.5C67.3 231.6 68 230.1 68.5 228.6 69.4 227.7 70 226.4 70 225V52H277V223C277 223.4 277.1 223.8 277.1 224.1 276.5 228.7 273.1 232.3 268.7 233.3M262 71C262 68.2 259.8 66 257 66H89C86.2 66 84 68.2 84 71V111C84 113.8 86.2 116 89 116H257C259.8 116 262 113.8 262 111zM94 76H251V106H94zM178 136C178 133.2 175.8 131 173 131H89C86.2 131 84 133.2 84 136V193C84 195.8 86.2 198 89 198H173C175.8 198 178 195.8 178 193zM94 141H168V188H94zM262 136C262 138.8 259.8 141 257 141H187C184.2 141 182 138.8 182 136S184.2 131 187 131H257C259.8 131 262 133.2 262 136M262 164C262 166.8 259.8 169 257 169H187C184.2 169 182 166.8 182 164S184.2 159 187 159H257C259.8 159 262 161.2 262 164M262 193C262 195.8 259.8 198 257 198H187C184.2 198 182 195.8 182 193S184.2 188 187 188H257C259.8 188 262 190.2 262 193M262 214C262 216.8 259.8 219 257 219H89C86.2 219 84 216.8 84 214S86.2 209 89 209H257C259.8 209 262 211.2 262 214" fill="#ffffff" data-fill-palette-color="accent"></path></svg></g></svg></g></svg></g></svg></g></svg></g><g><path d="M0 247.2v-247.2h395.52v247.2zM390.593 242.273v-237.346h-385.666v237.346z" fill="#ffffff" fill-rule="nonzero" stroke="none" stroke-width="1" stroke-linecap="butt" stroke-linejoin="miter" stroke-miterlimit="10" stroke-dasharray="" stroke-dashoffset="0" font-family="none" font-weight="none" font-size="none" text-anchor="none" style="mix-blend-mode: normal" data-fill-palette-color="tertiary"></path></g></svg></g><defs></defs></svg><rect width="395.52" height="247.2" fill="none" stroke="none" visibility="hidden"></rect></g></svg></g></svg>